<?xml version="1.0" encoding="UTF-8" standalone="no"?>
<svg
   width="448.40353"
   zoomAndPan="magnify"
   viewBox="0 0 336.30265 163.708"
   height="218.27734"
   preserveAspectRatio="xMidYMid"
   version="1.2"
   id="svg106"
   sodipodi:docname="logo-gtf.svg"
   inkscape:version="1.4.2 (ebf0e940, 2025-05-08)"
   xmlns:inkscape="http://www.inkscape.org/namespaces/inkscape"
   xmlns:sodipodi="http://sodipodi.sourceforge.net/DTD/sodipodi-0.dtd"
   xmlns="http://www.w3.org/2000/svg"
   xmlns:svg="http://www.w3.org/2000/svg">
  <sodipodi:namedview
     id="namedview106"
     pagecolor="#ffffff"
     bordercolor="#000000"
     borderopacity="0.25"
     inkscape:showpageshadow="2"
     inkscape:pageopacity="0.0"
     inkscape:pagecheckerboard="0"
     inkscape:deskcolor="#d1d1d1"
     inkscape:clip-to-page="true"
     inkscape:zoom="0.44111931"
     inkscape:cx="371.78151"
     inkscape:cy="32.870926"
     inkscape:window-width="1440"
     inkscape:window-height="900"
     inkscape:window-x="0"
     inkscape:window-y="0"
     inkscape:window-maximized="0"
     inkscape:current-layer="svg106" />
  <defs
     id="defs6">
    <clipPath
       id="c9cd193533">
      <path
         d="M 18.75,174.15625 H 139.5 v 95.25 H 18.75 Z m 0,0"
         id="path1" />
    </clipPath>
    <clipPath
       id="13d791afad">
      <path
         d="M 18.75,138.89062 H 139.5 v 95.25 H 18.75 Z m 0,0"
         id="path2" />
    </clipPath>
    <clipPath
       id="50d5aab984">
      <path
         d="M 18.75,105.58594 H 139.5 v 95.25 H 18.75 Z m 0,0"
         id="path3" />
    </clipPath>
    <clipPath
       id="7b94d4ab55">
      <path
         d="m 19,128 h 120 v 72.83594 H 19 Z m 0,0"
         id="path4" />
    </clipPath>
    <clipPath
       id="b0ef2e3b63">
      <rect
         x="0"
         width="111"
         y="0"
         height="22"
         id="rect4" />
    </clipPath>
    <clipPath
       id="1d0ad2033b">
      <rect
         x="0"
         width="42"
         y="0"
         height="23"
         id="rect5" />
    </clipPath>
    <clipPath
       id="fbc6188efe">
      <rect
         x="0"
         width="209"
         y="0"
         height="23"
         id="rect6" />
    </clipPath>
  </defs>
  <g
     id="2bd90c1588"
     transform="translate(-18.75,-105.68652)">
    <path
       style="fill:#7a4900;fill-opacity:1;fill-rule:nonzero;stroke:none"
       d="m 137.62109,197.99609 v 23.46875 l -79.374996,46.03907 v -23.46875 z m 0,0"
       id="path6" />
    <path
       style="fill:#7a4900;fill-opacity:1;fill-rule:nonzero;stroke:none"
       d="m 58.246094,244.03516 v 23.46875 L 20.640625,245.65625 V 222.1875 Z m 0,0"
       id="path7" />
    <path
       style="fill:#7a4900;fill-opacity:1;fill-rule:nonzero;stroke:none"
       d="M 137.62109,197.99609 58.246094,244.03516 20.640625,222.1875 100.01172,176.14844 Z m 0,0"
       id="path8" />
    <path
       style="fill:#7a4900;fill-opacity:1;fill-rule:nonzero;stroke:none"
       d="m 121.50781,211.375 -4.75,-2.75781 c -0.30078,-0.17578 -0.6875,-0.0742 -0.85937,0.22656 -0.17578,0.30078 -0.0742,0.6875 0.22656,0.86328 l 4.75,2.75781 c 0.0977,0.0586 0.20703,0.0859 0.31641,0.0859 0.21484,0 0.42578,-0.11328 0.54297,-0.3125 0.17578,-0.30078 0.0742,-0.6875 -0.22657,-0.86328 z m 0,0"
       id="path9" />
    <path
       style="fill:#7a4900;fill-opacity:1;fill-rule:nonzero;stroke:none"
       d="m 131.00781,216.89453 -4.75,-2.76172 c -0.30078,-0.17187 -0.6875,-0.0703 -0.86328,0.23047 -0.17187,0.30078 -0.0703,0.6875 0.23047,0.85938 l 4.75,2.76171 c 0.0977,0.0586 0.20703,0.0859 0.31641,0.0859 0.21484,0 0.42578,-0.11328 0.54296,-0.3164 0.17579,-0.30079 0.0742,-0.6836 -0.22656,-0.85938 z m 0,0"
       id="path10" />
    <path
       style="fill:#7a4900;fill-opacity:1;fill-rule:nonzero;stroke:none"
       d="m 137.9375,220.91797 -2.17969,-1.26563 c -0.30078,-0.17578 -0.6875,-0.0703 -0.86328,0.23047 -0.17578,0.30078 -0.0742,0.6836 0.23047,0.85938 l 2.17969,1.26562 c 0.0977,0.0586 0.20703,0.0859 0.3125,0.0859 0.21875,0 0.42968,-0.11328 0.54687,-0.3125 0.17578,-0.30078 0.0742,-0.6875 -0.22656,-0.86328 z m 0,0"
       id="path11" />
    <path
       style="fill:#7a4900;fill-opacity:1;fill-rule:nonzero;stroke:none"
       d="m 22.503906,243.84766 -2.179687,1.26171 c -0.300781,0.17579 -0.402344,0.5625 -0.230469,0.86329 0.117188,0.20312 0.332031,0.3125 0.546875,0.3125 0.109375,0 0.21875,-0.0273 0.316406,-0.082 l 2.179688,-1.26562 c 0.300781,-0.17578 0.40625,-0.5625 0.230469,-0.86328 -0.175782,-0.30078 -0.558594,-0.40235 -0.863282,-0.22656 z m 0,0"
       id="path12" />
    <path
       style="fill:#7a4900;fill-opacity:1;fill-rule:nonzero;stroke:none"
       d="m 75.453125,213.13281 -4.410156,2.5586 c -0.300781,0.17578 -0.40625,0.5625 -0.230469,0.86328 0.117188,0.19922 0.328125,0.3125 0.546875,0.3125 0.105469,0 0.214844,-0.0273 0.316406,-0.0859 l 4.410157,-2.55859 c 0.300781,-0.17188 0.402343,-0.5586 0.230468,-0.85938 -0.175781,-0.30078 -0.5625,-0.40625 -0.863281,-0.23047 z m 0,0"
       id="path13" />
    <path
       style="fill:#7a4900;fill-opacity:1;fill-rule:nonzero;stroke:none"
       d="m 66.628906,218.25391 -4.410156,2.55859 c -0.304688,0.17187 -0.40625,0.55859 -0.230469,0.85937 0.117188,0.20313 0.328125,0.31641 0.546875,0.31641 0.105469,0 0.214844,-0.0273 0.3125,-0.0859 l 4.414063,-2.55859 c 0.300781,-0.17578 0.402343,-0.5625 0.230469,-0.86328 -0.175782,-0.30078 -0.5625,-0.40235 -0.863282,-0.22656 z m 0,0"
       id="path14" />
    <path
       style="fill:#7a4900;fill-opacity:1;fill-rule:nonzero;stroke:none"
       d="m 57.804688,223.37109 -4.414063,2.5586 c -0.300781,0.17578 -0.402344,0.5625 -0.226563,0.86328 0.117188,0.19922 0.328126,0.3125 0.542969,0.3125 0.109375,0 0.21875,-0.0273 0.316407,-0.0859 l 4.414062,-2.55859 c 0.300781,-0.17578 0.402344,-0.5586 0.226562,-0.85938 -0.171874,-0.30469 -0.558593,-0.40625 -0.859374,-0.23047 z m 0,0"
       id="path15" />
    <path
       style="fill:#7a4900;fill-opacity:1;fill-rule:nonzero;stroke:none"
       d="m 48.980469,228.48828 -4.414063,2.5625 c -0.300781,0.17188 -0.402344,0.55859 -0.226562,0.85938 0.117187,0.20312 0.328125,0.3164 0.542968,0.3164 0.109376,0 0.21875,-0.0312 0.316407,-0.0859 l 4.414062,-2.55859 c 0.300781,-0.17578 0.402344,-0.5625 0.226563,-0.86328 -0.171875,-0.30078 -0.558594,-0.40234 -0.859375,-0.23047 z m 0,0"
       id="path16" />
    <path
       style="fill:#7a4900;fill-opacity:1;fill-rule:nonzero;stroke:none"
       d="m 31.332031,238.72656 -4.414062,2.5586 c -0.300781,0.17578 -0.402344,0.5625 -0.230469,0.86328 0.117188,0.20312 0.328125,0.3125 0.546875,0.3125 0.109375,0 0.214844,-0.0273 0.316406,-0.082 l 4.410157,-2.5625 c 0.304687,-0.17188 0.40625,-0.5586 0.230468,-0.85938 -0.175781,-0.30078 -0.558594,-0.40234 -0.859375,-0.23047 z m 0,0"
       id="path17" />
    <path
       style="fill:#7a4900;fill-opacity:1;fill-rule:nonzero;stroke:none"
       d="m 40.15625,233.60937 -4.414062,2.5586 c -0.300782,0.17578 -0.402344,0.55859 -0.230469,0.86328 0.117187,0.19922 0.332031,0.3125 0.546875,0.3125 0.109375,0 0.21875,-0.0273 0.316406,-0.0859 l 4.414062,-2.55859 c 0.300782,-0.17578 0.402344,-0.5625 0.226563,-0.86328 -0.175781,-0.30078 -0.558594,-0.40235 -0.859375,-0.22657 z m 0,0"
       id="path18" />
    <path
       style="fill:#7a4900;fill-opacity:1;fill-rule:nonzero;stroke:none"
       d="m 84.277344,208.01562 -4.410156,2.5586 c -0.300782,0.17578 -0.40625,0.55859 -0.230469,0.85937 0.117187,0.20313 0.328125,0.31641 0.546875,0.31641 0.105468,0 0.214844,-0.0273 0.316406,-0.0859 l 4.410156,-2.55859 c 0.300782,-0.17578 0.40625,-0.5625 0.230469,-0.86328 -0.175781,-0.30078 -0.5625,-0.40235 -0.863281,-0.22657 z m 0,0"
       id="path19" />
    <path
       style="fill:#7a4900;fill-opacity:1;fill-rule:nonzero;stroke:none"
       d="m 93.101562,202.89453 -4.410156,2.5625 c -0.300781,0.17188 -0.402344,0.55859 -0.230468,0.85938 0.117187,0.20312 0.328124,0.3125 0.546874,0.3125 0.109376,0 0.214844,-0.0273 0.316407,-0.082 l 4.410156,-2.5625 c 0.300781,-0.17187 0.40625,-0.55859 0.230469,-0.85937 -0.175782,-0.30078 -0.558594,-0.40234 -0.863282,-0.23047 z m 0,0"
       id="path20" />
    <path
       style="fill:#7a4900;fill-opacity:1;fill-rule:nonzero;stroke:none"
       d="m 102.50781,200.33984 -1.86328,-1.08593 v -2.16016 c 0,-0.34766 -0.28515,-0.62891 -0.63281,-0.62891 -0.347658,0 -0.628908,0.28125 -0.628908,0.62891 v 2.16016 l -1.867187,1.08203 c -0.300781,0.17578 -0.402344,0.5625 -0.230469,0.86328 0.175782,0.30078 0.5625,0.40234 0.863282,0.22656 l 1.863282,-1.08203 1.86328,1.08594 c 0.10156,0.0547 0.21094,0.082 0.31641,0.082 0.21875,0 0.42968,-0.10938 0.54687,-0.3125 0.17578,-0.30078 0.0742,-0.6875 -0.23047,-0.85938 z m 0,0"
       id="path21" />
    <path
       style="fill:#7a4900;fill-opacity:1;fill-rule:nonzero;stroke:none"
       d="m 112.00781,205.85547 -4.75,-2.75781 c -0.30078,-0.17579 -0.6875,-0.0742 -0.85937,0.22656 -0.17578,0.30078 -0.0742,0.6875 0.22656,0.86328 l 4.75,2.75781 c 0.10156,0.0586 0.20703,0.0859 0.31641,0.0859 0.21875,0 0.42968,-0.11328 0.54687,-0.3125 0.17188,-0.30078 0.0703,-0.6875 -0.23047,-0.86328 z m 0,0"
       id="path22" />
    <path
       style="fill:#7a4900;fill-opacity:1;fill-rule:nonzero;stroke:none"
       d="m 100.01172,191.58203 c 0.34766,0 0.63281,-0.28125 0.63281,-0.62891 v -6.14062 c 0,-0.34766 -0.28515,-0.63281 -0.63281,-0.63281 -0.347658,0 -0.628908,0.28515 -0.628908,0.63281 v 6.14062 c 0,0.34766 0.28125,0.62891 0.628908,0.62891 z m 0,0"
       id="path23" />
    <path
       style="fill:#7a4900;fill-opacity:1;fill-rule:nonzero;stroke:none"
       d="m 100.01172,179.30078 c 0.34766,0 0.63281,-0.28516 0.63281,-0.63281 v -2.51953 c 0,-0.34766 -0.28515,-0.62891 -0.63281,-0.62891 -0.347658,0 -0.628908,0.28125 -0.628908,0.62891 v 2.51953 c 0,0.34765 0.28125,0.63281 0.628908,0.63281 z m 0,0"
       id="path24" />
    <g
       clip-rule="nonzero"
       clip-path="url(#c9cd193533)"
       id="g25">
      <path
         style="fill:#263238;fill-opacity:1;fill-rule:nonzero;stroke:none"
         d="m 58.246094,269.39453 c -0.328125,0 -0.65625,-0.0859 -0.949219,-0.25391 L 19.691406,247.29297 C 19.109375,246.95312 18.75,246.32812 18.75,245.65625 V 222.1875 c 0,-0.67188 0.359375,-1.29688 0.941406,-1.63672 L 99.0625,174.51172 c 0.589844,-0.33985 1.3125,-0.33985 1.89844,0 l 37.60937,21.84765 c 0.58203,0.33985 0.94141,0.96485 0.94141,1.63672 v 23.46875 c 0,0.67188 -0.35938,1.29688 -0.94141,1.63672 l -79.374998,46.03906 c -0.292968,0.16797 -0.621093,0.25391 -0.949218,0.25391 z M 22.53125,244.56641 58.25,265.31641 135.73047,220.375 v -21.28906 l -35.71875,-20.75 -77.48047,44.9414 z m 0,0"
         id="path25" />
    </g>
    <path
       style="fill:#263238;fill-opacity:1;fill-rule:nonzero;stroke:none"
       d="m 138.71094,197.36328 c -0.35157,-0.60156 -1.1211,-0.80859 -1.72266,-0.45703 L 58.246094,242.57812 21.273438,221.09766 c -0.601563,-0.34766 -1.371094,-0.14454 -1.722657,0.45703 -0.351562,0.60156 -0.144531,1.375 0.457031,1.72265 l 36.980469,21.48438 v 22.74219 c 0,0.69531 0.5625,1.26171 1.257813,1.26171 0.699218,0 1.261718,-0.5664 1.261718,-1.26171 v -22.74219 l 78.746098,-45.67578 c 0.60156,-0.34766 0.80468,-1.1211 0.45703,-1.72266 z m 0,0"
       id="path26" />
    <path
       style="fill:#cc4e00;fill-opacity:1;fill-rule:nonzero;stroke:none"
       d="m 137.62109,162.73047 v 23.47265 l -79.374996,46.03516 v -23.46875 z m 0,0"
       id="path27" />
    <path
       style="fill:#ff751f;fill-opacity:1;fill-rule:nonzero;stroke:none"
       d="m 58.246094,208.76953 v 23.46875 L 20.640625,210.39062 v -23.46875 z m 0,0"
       id="path28" />
    <path
       style="fill:#ff751f;fill-opacity:1;fill-rule:nonzero;stroke:none"
       d="M 137.62109,162.73047 58.246094,208.76953 20.640625,186.92187 100.01172,140.88281 Z m 0,0"
       id="path29" />
    <path
       style="fill:#ff751f;fill-opacity:1;fill-rule:nonzero;stroke:none"
       d="m 121.50781,176.10937 -4.75,-2.75781 c -0.30078,-0.17578 -0.6875,-0.0742 -0.85937,0.22656 -0.17578,0.30469 -0.0742,0.6875 0.22656,0.86329 l 4.75,2.75781 c 0.0977,0.0586 0.20703,0.0859 0.31641,0.0859 0.21484,0 0.42578,-0.11329 0.54297,-0.3125 0.17578,-0.30079 0.0742,-0.6875 -0.22657,-0.86329 z m 0,0"
       id="path30" />
    <path
       style="fill:#ff751f;fill-opacity:1;fill-rule:nonzero;stroke:none"
       d="m 131.00781,181.62891 -4.75,-2.75782 c -0.30078,-0.17578 -0.6875,-0.0742 -0.86328,0.22657 -0.17187,0.30078 -0.0703,0.6875 0.23047,0.86328 l 4.75,2.75781 c 0.0977,0.0586 0.20703,0.0859 0.31641,0.0859 0.21484,0 0.42578,-0.11328 0.54296,-0.3125 0.17579,-0.30078 0.0742,-0.6875 -0.22656,-0.86328 z m 0,0"
       id="path31" />
    <path
       style="fill:#ff751f;fill-opacity:1;fill-rule:nonzero;stroke:none"
       d="m 137.9375,185.65625 -2.17969,-1.26953 c -0.30078,-0.17188 -0.6875,-0.0703 -0.86328,0.23047 -0.17578,0.30078 -0.0742,0.6875 0.23047,0.86328 l 2.17969,1.26562 c 0.0977,0.0586 0.20703,0.0859 0.3125,0.0859 0.21875,0 0.42968,-0.11328 0.54687,-0.31641 0.17578,-0.30078 0.0742,-0.6875 -0.22656,-0.85937 z m 0,0"
       id="path32" />
    <path
       style="fill:#cc4e00;fill-opacity:1;fill-rule:nonzero;stroke:none"
       d="m 22.503906,208.58203 -2.179687,1.26563 c -0.300781,0.17187 -0.402344,0.55859 -0.230469,0.85937 0.117188,0.20313 0.332031,0.31641 0.546875,0.31641 0.109375,0 0.21875,-0.0273 0.316406,-0.0859 l 2.179688,-1.26563 c 0.300781,-0.17578 0.40625,-0.55859 0.230469,-0.85937 -0.175782,-0.30469 -0.558594,-0.40625 -0.863282,-0.23047 z m 0,0"
       id="path33" />
    <path
       style="fill:#cc4e00;fill-opacity:1;fill-rule:nonzero;stroke:none"
       d="m 75.453125,177.86719 -4.410156,2.5625 c -0.300781,0.17187 -0.40625,0.55859 -0.230469,0.85937 0.117188,0.20313 0.328125,0.31641 0.546875,0.31641 0.105469,0 0.214844,-0.0273 0.316406,-0.0859 l 4.410157,-2.55859 c 0.300781,-0.17578 0.402343,-0.5625 0.230468,-0.86328 -0.175781,-0.30079 -0.5625,-0.40235 -0.863281,-0.23047 z m 0,0"
       id="path34" />
    <path
       style="fill:#cc4e00;fill-opacity:1;fill-rule:nonzero;stroke:none"
       d="m 66.628906,182.98828 -4.410156,2.55859 c -0.304688,0.17579 -0.40625,0.5625 -0.230469,0.86329 0.117188,0.19921 0.328125,0.3125 0.546875,0.3125 0.105469,0 0.214844,-0.0273 0.3125,-0.0859 l 4.414063,-2.5586 c 0.300781,-0.17578 0.402343,-0.55859 0.230469,-0.85937 -0.175782,-0.30469 -0.5625,-0.40625 -0.863282,-0.23047 z m 0,0"
       id="path35" />
    <path
       style="fill:#cc4e00;fill-opacity:1;fill-rule:nonzero;stroke:none"
       d="m 57.804688,188.10547 -4.414063,2.5625 c -0.300781,0.17187 -0.402344,0.55859 -0.226563,0.85937 0.117188,0.20313 0.328126,0.3125 0.542969,0.3125 0.109375,0 0.21875,-0.0273 0.316407,-0.082 l 4.414062,-2.5625 c 0.300781,-0.17187 0.402344,-0.55859 0.226562,-0.85937 -0.171874,-0.30078 -0.558593,-0.40235 -0.859374,-0.23047 z m 0,0"
       id="path36" />
    <path
       style="fill:#cc4e00;fill-opacity:1;fill-rule:nonzero;stroke:none"
       d="m 48.980469,193.22656 -4.414063,2.5586 c -0.300781,0.17578 -0.402344,0.55859 -0.226562,0.85937 0.117187,0.20313 0.328125,0.31641 0.542968,0.31641 0.109376,0 0.21875,-0.0273 0.316407,-0.0859 l 4.414062,-2.55859 c 0.300781,-0.17579 0.402344,-0.5625 0.226563,-0.86329 -0.171875,-0.30078 -0.558594,-0.40234 -0.859375,-0.22656 z m 0,0"
       id="path37" />
    <path
       style="fill:#cc4e00;fill-opacity:1;fill-rule:nonzero;stroke:none"
       d="m 31.332031,203.46484 -4.414062,2.5586 c -0.300781,0.17187 -0.402344,0.55859 -0.230469,0.85937 0.117188,0.20313 0.328125,0.31641 0.546875,0.31641 0.109375,0 0.214844,-0.0273 0.316406,-0.0859 l 4.410157,-2.55859 c 0.304687,-0.17578 0.40625,-0.5625 0.230468,-0.86328 -0.175781,-0.30079 -0.558594,-0.40235 -0.859375,-0.22657 z m 0,0"
       id="path38" />
    <path
       style="fill:#cc4e00;fill-opacity:1;fill-rule:nonzero;stroke:none"
       d="m 40.15625,198.34375 -4.414062,2.55859 c -0.300782,0.17578 -0.402344,0.5625 -0.230469,0.86328 0.117187,0.19922 0.332031,0.3125 0.546875,0.3125 0.109375,0 0.21875,-0.0273 0.316406,-0.0859 l 4.414062,-2.5586 c 0.300782,-0.17187 0.402344,-0.55859 0.226563,-0.85937 -0.175781,-0.30078 -0.558594,-0.40625 -0.859375,-0.23047 z m 0,0"
       id="path39" />
    <path
       style="fill:#cc4e00;fill-opacity:1;fill-rule:nonzero;stroke:none"
       d="m 84.277344,172.75 -4.410156,2.55859 c -0.300782,0.17578 -0.40625,0.5625 -0.230469,0.86328 0.117187,0.19922 0.328125,0.3125 0.546875,0.3125 0.105468,0 0.214844,-0.0273 0.316406,-0.0859 l 4.410156,-2.5586 c 0.300782,-0.17187 0.40625,-0.55859 0.230469,-0.85937 -0.175781,-0.30078 -0.5625,-0.40625 -0.863281,-0.23047 z m 0,0"
       id="path40" />
    <path
       style="fill:#cc4e00;fill-opacity:1;fill-rule:nonzero;stroke:none"
       d="m 93.101562,167.63281 -4.410156,2.5586 c -0.300781,0.17578 -0.402344,0.55859 -0.230468,0.85937 0.117187,0.20313 0.328124,0.31641 0.546874,0.31641 0.109376,0 0.214844,-0.0273 0.316407,-0.0859 l 4.410156,-2.55859 c 0.300781,-0.17579 0.40625,-0.5625 0.230469,-0.86329 -0.175782,-0.30078 -0.558594,-0.40234 -0.863282,-0.22656 z m 0,0"
       id="path41" />
    <path
       style="fill:#cc4e00;fill-opacity:1;fill-rule:nonzero;stroke:none"
       d="m 102.50781,165.07422 -1.86328,-1.08594 v -2.15625 c 0,-0.34766 -0.28515,-0.63281 -0.63281,-0.63281 -0.347658,0 -0.628908,0.28515 -0.628908,0.63281 v 2.15625 l -1.867187,1.08203 c -0.300781,0.17578 -0.402344,0.5625 -0.230469,0.86328 0.175782,0.30078 0.5625,0.40235 0.863282,0.23047 l 1.863282,-1.08203 1.86328,1.08203 c 0.10156,0.0586 0.21094,0.0859 0.31641,0.0859 0.21875,0 0.42968,-0.11328 0.54687,-0.31641 0.17578,-0.30078 0.0742,-0.68359 -0.23047,-0.85937 z m 0,0"
       id="path42" />
    <path
       style="fill:#cc4e00;fill-opacity:1;fill-rule:nonzero;stroke:none"
       d="m 112.00781,170.59375 -4.75,-2.76172 c -0.30078,-0.17578 -0.6875,-0.0703 -0.85937,0.23047 -0.17578,0.30078 -0.0742,0.6875 0.22656,0.85937 l 4.75,2.76172 c 0.10156,0.0547 0.20703,0.0859 0.31641,0.0859 0.21875,0 0.42968,-0.11328 0.54687,-0.31641 0.17188,-0.30078 0.0703,-0.6875 -0.23047,-0.85937 z m 0,0"
       id="path43" />
    <path
       style="fill:#cc4e00;fill-opacity:1;fill-rule:nonzero;stroke:none"
       d="m 100.01172,156.32031 c 0.34766,0 0.63281,-0.28125 0.63281,-0.63281 v -6.14063 c 0,-0.34765 -0.28515,-0.6289 -0.63281,-0.6289 -0.347658,0 -0.628908,0.28125 -0.628908,0.6289 v 6.14063 c 0,0.35156 0.28125,0.63281 0.628908,0.63281 z m 0,0"
       id="path44" />
    <path
       style="fill:#cc4e00;fill-opacity:1;fill-rule:nonzero;stroke:none"
       d="m 100.01172,144.03516 c 0.34766,0 0.63281,-0.28125 0.63281,-0.62891 v -2.52344 c 0,-0.34765 -0.28515,-0.6289 -0.63281,-0.6289 -0.347658,0 -0.628908,0.28125 -0.628908,0.6289 v 2.52344 c 0,0.34766 0.28125,0.62891 0.628908,0.62891 z m 0,0"
       id="path45" />
    <g
       clip-rule="nonzero"
       clip-path="url(#13d791afad)"
       id="g46">
      <path
         style="fill:#263238;fill-opacity:1;fill-rule:nonzero;stroke:none"
         d="m 58.246094,234.12891 c -0.328125,0 -0.65625,-0.082 -0.949219,-0.25391 L 19.691406,212.02734 C 19.109375,211.6875 18.75,211.06641 18.75,210.39062 v -23.46875 c 0,-0.67187 0.359375,-1.29687 0.941406,-1.63281 L 99.0625,139.25 c 0.589844,-0.34375 1.3125,-0.34375 1.89844,0 l 37.60937,21.84766 c 0.58203,0.33593 0.94141,0.96093 0.94141,1.63281 v 23.46875 c 0,0.67578 -0.35938,1.29687 -0.94141,1.63672 L 59.195312,233.875 c -0.292968,0.17187 -0.621093,0.25391 -0.949218,0.25391 z m -35.714844,-24.82422 35.71875,20.75 77.48047,-44.94532 v -21.28906 l -35.71875,-20.75 -77.48047,44.94141 z m 0,0"
         id="path46" />
    </g>
    <path
       style="fill:#263238;fill-opacity:1;fill-rule:nonzero;stroke:none"
       d="m 138.71094,162.09766 c -0.35157,-0.60157 -1.1211,-0.80469 -1.72266,-0.45704 L 58.246094,207.3125 21.273438,185.83203 c -0.601563,-0.34766 -1.371094,-0.14453 -1.722657,0.45703 -0.351562,0.60156 -0.144531,1.375 0.457031,1.72266 l 36.980469,21.48437 v 22.74219 c 0,0.69922 0.5625,1.26172 1.257813,1.26172 0.699218,0 1.261718,-0.5625 1.261718,-1.26172 v -22.74219 l 78.746098,-45.67578 c 0.60156,-0.34765 0.80468,-1.11719 0.45703,-1.72265 z m 0,0"
       id="path47" />
    <path
       style="fill:#737373;fill-opacity:1;fill-rule:nonzero;stroke:none"
       d="m 137.62109,129.42578 v 23.46875 l -79.374996,46.03906 v -23.46875 z m 0,0"
       id="path48" />
    <path
       style="fill:#b4b4b4;fill-opacity:1;fill-rule:nonzero;stroke:none"
       d="m 58.246094,175.46484 v 23.46875 L 20.640625,177.08594 v -23.46875 z m 0,0"
       id="path49" />
    <path
       style="fill:#b4b4b4;fill-opacity:1;fill-rule:nonzero;stroke:none"
       d="M 137.62109,129.42578 58.246094,175.46484 20.640625,153.61719 100.01172,107.57813 Z m 0,0"
       id="path50" />
    <path
       style="fill:#a6a6a6;fill-opacity:1;fill-rule:nonzero;stroke:none"
       d="m 121.50781,142.80469 -4.75,-2.76172 c -0.30078,-0.17188 -0.6875,-0.0703 -0.85937,0.23047 -0.17578,0.30078 -0.0742,0.6875 0.22656,0.85937 l 4.75,2.76172 c 0.0977,0.0586 0.20703,0.0859 0.31641,0.0859 0.21484,0 0.42578,-0.11328 0.54297,-0.31641 0.17578,-0.30078 0.0742,-0.68359 -0.22657,-0.85937 z m 0,0"
       id="path51" />
    <path
       style="fill:#a6a6a6;fill-opacity:1;fill-rule:nonzero;stroke:none"
       d="m 131.00781,148.32422 -4.75,-2.76172 c -0.30078,-0.17578 -0.6875,-0.0703 -0.86328,0.23047 -0.17187,0.30078 -0.0703,0.68359 0.23047,0.85937 l 4.75,2.76172 c 0.0977,0.0547 0.20703,0.082 0.31641,0.082 0.21484,0 0.42578,-0.10937 0.54296,-0.3125 0.17579,-0.30078 0.0742,-0.6875 -0.22656,-0.85937 z m 0,0"
       id="path52" />
    <path
       style="fill:#a6a6a6;fill-opacity:1;fill-rule:nonzero;stroke:none"
       d="m 137.9375,152.34766 -2.17969,-1.26563 c -0.30078,-0.17578 -0.6875,-0.0742 -0.86328,0.22656 -0.17578,0.30078 -0.0742,0.6875 0.23047,0.86328 l 2.17969,1.26563 c 0.0977,0.0586 0.20703,0.0859 0.3125,0.0859 0.21875,0 0.42968,-0.11328 0.54687,-0.3125 0.17578,-0.30078 0.0742,-0.6875 -0.22656,-0.86328 z m 0,0"
       id="path53" />
    <path
       style="fill:#737373;fill-opacity:1;fill-rule:nonzero;stroke:none"
       d="m 22.503906,175.27344 -2.179687,1.26562 c -0.300781,0.17578 -0.402344,0.5625 -0.230469,0.86328 0.117188,0.19922 0.332031,0.3125 0.546875,0.3125 0.109375,0 0.21875,-0.0273 0.316406,-0.0859 l 2.179688,-1.26172 c 0.300781,-0.17578 0.40625,-0.5625 0.230469,-0.86328 -0.175782,-0.30079 -0.558594,-0.40235 -0.863282,-0.23047 z m 0,0"
       id="path54" />
    <path
       style="fill:#737373;fill-opacity:1;fill-rule:nonzero;stroke:none"
       d="m 75.453125,144.5625 -4.410156,2.55859 c -0.300781,0.17578 -0.40625,0.5625 -0.230469,0.86328 0.117188,0.19922 0.328125,0.3125 0.546875,0.3125 0.105469,0 0.214844,-0.0273 0.316406,-0.0859 l 4.410157,-2.5586 c 0.300781,-0.17578 0.402343,-0.55859 0.230468,-0.85937 -0.175781,-0.30469 -0.5625,-0.40625 -0.863281,-0.23047 z m 0,0"
       id="path55" />
    <path
       style="fill:#737373;fill-opacity:1;fill-rule:nonzero;stroke:none"
       d="m 66.628906,149.67969 -4.410156,2.5625 c -0.304688,0.17187 -0.40625,0.55859 -0.230469,0.85937 0.117188,0.20313 0.328125,0.3125 0.546875,0.3125 0.105469,0 0.214844,-0.0273 0.3125,-0.082 l 4.414063,-2.5625 c 0.300781,-0.17187 0.402343,-0.55859 0.230469,-0.85937 -0.175782,-0.30079 -0.5625,-0.40235 -0.863282,-0.23047 z m 0,0"
       id="path56" />
    <path
       style="fill:#737373;fill-opacity:1;fill-rule:nonzero;stroke:none"
       d="m 57.804688,154.80078 -4.414063,2.55859 c -0.300781,0.17579 -0.402344,0.5586 -0.226563,0.85938 0.117188,0.20312 0.328126,0.31641 0.542969,0.31641 0.109375,0 0.21875,-0.0273 0.316407,-0.0859 l 4.414062,-2.5586 c 0.300781,-0.17578 0.402344,-0.5625 0.226562,-0.86328 -0.171874,-0.30078 -0.558593,-0.40234 -0.859374,-0.22656 z m 0,0"
       id="path57" />
    <path
       style="fill:#737373;fill-opacity:1;fill-rule:nonzero;stroke:none"
       d="m 48.980469,159.91797 -4.414063,2.55859 c -0.300781,0.17578 -0.402344,0.5625 -0.226562,0.86328 0.117187,0.19922 0.328125,0.3125 0.542968,0.3125 0.109376,0 0.21875,-0.0273 0.316407,-0.0859 l 4.414062,-2.5586 c 0.300781,-0.17187 0.402344,-0.55859 0.226563,-0.85937 -0.171875,-0.30078 -0.558594,-0.40625 -0.859375,-0.23047 z m 0,0"
       id="path58" />
    <path
       style="fill:#737373;fill-opacity:1;fill-rule:nonzero;stroke:none"
       d="m 31.332031,170.15625 -4.414062,2.55859 c -0.300781,0.17578 -0.402344,0.5625 -0.230469,0.86328 0.117188,0.19922 0.328125,0.3125 0.546875,0.3125 0.109375,0 0.214844,-0.0273 0.316406,-0.0859 l 4.410157,-2.5586 c 0.304687,-0.17578 0.40625,-0.55859 0.230468,-0.85937 -0.175781,-0.30469 -0.558594,-0.40625 -0.859375,-0.23047 z m 0,0"
       id="path59" />
    <path
       style="fill:#737373;fill-opacity:1;fill-rule:nonzero;stroke:none"
       d="m 40.15625,165.03906 -4.414062,2.5586 c -0.300782,0.17187 -0.402344,0.55859 -0.230469,0.85937 0.117187,0.20313 0.332031,0.31641 0.546875,0.31641 0.109375,0 0.21875,-0.0273 0.316406,-0.0859 l 4.414062,-2.55859 c 0.300782,-0.17579 0.402344,-0.5625 0.226563,-0.86329 -0.175781,-0.30078 -0.558594,-0.40234 -0.859375,-0.22656 z m 0,0"
       id="path60" />
    <path
       style="fill:#737373;fill-opacity:1;fill-rule:nonzero;stroke:none"
       d="m 84.277344,139.44531 -4.410156,2.5586 c -0.300782,0.17187 -0.40625,0.55859 -0.230469,0.85937 0.117187,0.20313 0.328125,0.31641 0.546875,0.31641 0.105468,0 0.214844,-0.0273 0.316406,-0.0859 l 4.410156,-2.55859 c 0.300782,-0.17579 0.40625,-0.5625 0.230469,-0.86329 -0.175781,-0.30078 -0.5625,-0.40234 -0.863281,-0.22656 z m 0,0"
       id="path61" />
    <path
       style="fill:#737373;fill-opacity:1;fill-rule:nonzero;stroke:none"
       d="m 93.101562,134.32422 -4.410156,2.55859 c -0.300781,0.17578 -0.402344,0.5625 -0.230468,0.86328 0.117187,0.19922 0.328124,0.3125 0.546874,0.3125 0.109376,0 0.214844,-0.0273 0.316407,-0.0859 l 4.410156,-2.5586 c 0.300781,-0.17187 0.40625,-0.55859 0.230469,-0.85937 -0.175782,-0.30078 -0.558594,-0.40625 -0.863282,-0.23047 z m 0,0"
       id="path62" />
    <path
       style="fill:#737373;fill-opacity:1;fill-rule:nonzero;stroke:none"
       d="m 102.50781,131.76562 -1.86328,-1.08203 v -2.16015 c 0,-0.34766 -0.28515,-0.62891 -0.63281,-0.62891 -0.347658,0 -0.628908,0.28125 -0.628908,0.62891 v 2.16015 l -1.867187,1.08203 c -0.300781,0.17579 -0.402344,0.5586 -0.230469,0.85938 0.175782,0.30469 0.5625,0.40625 0.863282,0.23047 l 1.863282,-1.08203 1.86328,1.08203 c 0.10156,0.0586 0.21094,0.0859 0.31641,0.0859 0.21875,0 0.42968,-0.11329 0.54687,-0.3125 0.17578,-0.30079 0.0742,-0.6875 -0.23047,-0.86329 z m 0,0"
       id="path63" />
    <path
       style="fill:#737373;fill-opacity:1;fill-rule:nonzero;stroke:none"
       d="m 112.00781,137.28516 -4.75,-2.75782 c -0.30078,-0.17578 -0.6875,-0.0742 -0.85937,0.22657 -0.17578,0.30078 -0.0742,0.6875 0.22656,0.86328 l 4.75,2.75781 c 0.10156,0.0586 0.20703,0.0859 0.31641,0.0859 0.21875,0 0.42968,-0.11328 0.54687,-0.3125 0.17188,-0.30078 0.0703,-0.6875 -0.23047,-0.86328 z m 0,0"
       id="path64" />
    <path
       style="fill:#737373;fill-opacity:1;fill-rule:nonzero;stroke:none"
       d="m 100.01172,123.01172 c 0.34766,0 0.63281,-0.28125 0.63281,-0.62891 v -6.14062 c 0,-0.35156 -0.28515,-0.63281 -0.63281,-0.63281 -0.347658,0 -0.628908,0.28125 -0.628908,0.63281 v 6.14062 c 0,0.34766 0.28125,0.62891 0.628908,0.62891 z m 0,0"
       id="path65" />
    <path
       style="fill:#737373;fill-opacity:1;fill-rule:nonzero;stroke:none"
       d="m 100.01172,110.72656 c 0.34766,0 0.63281,-0.28125 0.63281,-0.6289 v -2.51953 c 0,-0.34766 -0.28515,-0.63282 -0.63281,-0.63282 -0.347658,0 -0.628908,0.28516 -0.628908,0.63282 v 2.51953 c 0,0.34765 0.28125,0.6289 0.628908,0.6289 z m 0,0"
       id="path66" />
    <g
       clip-rule="nonzero"
       clip-path="url(#50d5aab984)"
       id="g67">
      <path
         style="fill:#263238;fill-opacity:1;fill-rule:nonzero;stroke:none"
         d="m 58.246094,200.82422 c -0.328125,0 -0.65625,-0.0859 -0.949219,-0.25781 L 19.691406,178.71875 C 19.109375,178.38281 18.75,177.75781 18.75,177.08594 v -23.46875 c 0,-0.67578 0.359375,-1.29688 0.941406,-1.63672 L 99.0625,105.94141 c 0.589844,-0.33985 1.3125,-0.33985 1.89844,0 l 37.60937,21.84765 c 0.58203,0.33985 0.94141,0.96094 0.94141,1.63672 v 23.46875 c 0,0.67188 -0.35938,1.29688 -0.94141,1.63281 l -79.374998,46.03907 c -0.292968,0.17187 -0.621093,0.25781 -0.949218,0.25781 z m -35.714844,-24.82813 35.71875,20.75 77.48047,-44.9414 v -21.29297 l -35.71875,-20.75 -77.48047,44.94531 z m 0,0"
         id="path67" />
    </g>
    <g
       clip-rule="nonzero"
       clip-path="url(#7b94d4ab55)"
       id="g68">
      <path
         style="fill:#263238;fill-opacity:1;fill-rule:nonzero;stroke:none"
         d="m 138.71094,128.79297 c -0.35157,-0.60156 -1.1211,-0.80859 -1.72266,-0.45703 L 58.246094,174.00781 21.273438,152.52734 c -0.601563,-0.35156 -1.371094,-0.14453 -1.722657,0.45703 -0.351562,0.60157 -0.144531,1.3711 0.457031,1.72266 l 36.980469,21.48438 v 22.74218 c 0,0.69532 0.5625,1.25782 1.257813,1.25782 0.699218,0 1.261718,-0.5625 1.261718,-1.25782 v -22.74218 l 78.746098,-45.67579 c 0.60156,-0.35156 0.80468,-1.12109 0.45703,-1.72265 z m 0,0"
         id="path68" />
    </g>
    <g
       transform="translate(148,130)"
       id="g80">
      <g
         clip-path="url(#b0ef2e3b63)"
         id="g79">
        <g
           style="fill:#000000;fill-opacity:1"
           id="g70">
          <g
             transform="translate(1.050167,17.438851)"
             id="g69">
            <path
               style="stroke:none"
               d="m 11.046875,0.3125 c -3.617187,0 -6.273437,-0.742188 -7.96875,-2.234375 -1.511719,-1.3125 -2.265625,-3.101563 -2.265625,-5.375 0,-2.269531 0.753906,-4.066406 2.265625,-5.390625 1.695313,-1.476562 4.351563,-2.21875 7.96875,-2.21875 2.0625,0 3.773437,0.230469 5.140625,0.6875 1.363281,0.460938 2.429688,1.089844 3.203125,1.890625 0.78125,0.804687 1.3125,1.71875 1.59375,2.75 H 14.4375 c -0.6875,-0.9375 -1.820312,-1.40625 -3.390625,-1.40625 -1.480469,0 -2.570313,0.421875 -3.265625,1.265625 -0.554688,0.6875 -0.828125,1.496094 -0.828125,2.421875 0,0.9375 0.273437,1.746094 0.828125,2.421875 0.695312,0.84375 1.785156,1.265625 3.265625,1.265625 1.195313,0 2.09375,-0.101563 2.6875,-0.3125 0.601563,-0.207031 1.046875,-0.472656 1.328125,-0.796875 h -2.390625 v -2.578125 h 8.3125 v 7.3125 h -2.53125 l -0.53125,-1.421875 c -1.625,1.148438 -3.917969,1.71875 -6.875,1.71875 z m 0,0"
               id="path69" />
          </g>
        </g>
        <g
           style="fill:#000000;fill-opacity:1"
           id="g72">
          <g
             transform="translate(23.266836,17.438851)"
             id="g71">
            <path
               style="stroke:none"
               d="M 21.578125,0 H 15.78125 c -0.261719,-0.363281 -0.445312,-0.832031 -0.546875,-1.40625 -0.105469,-0.4375 -0.25,-0.867188 -0.4375,-1.296875 -0.1875,-0.425781 -0.515625,-0.78125 -0.984375,-1.0625 C 13.351562,-4.046875 12.664062,-4.195312 11.75,-4.21875 H 7.765625 V 0 H 1.625 v -14.609375 h 9.96875 c 2.382812,0 4.304688,0.179687 5.765625,0.53125 1.46875,0.355469 2.535156,0.917969 3.203125,1.6875 0.675781,0.761719 1.015625,1.757813 1.015625,2.984375 0,1.023438 -0.234375,1.882812 -0.703125,2.578125 -0.460938,0.699219 -1.1875,1.257813 -2.1875,1.671875 0.96875,0.398438 1.59375,0.875 1.875,1.4375 0.289062,0.5625 0.472656,1.179688 0.546875,1.84375 0.0625,0.59375 0.21875,1.21875 0.46875,1.875 z m -13.8125,-7.828125 h 3.5 c 0.976563,0 1.75,-0.039063 2.3125,-0.125 0.5625,-0.09375 0.976563,-0.21875 1.25,-0.375 0.269531,-0.15625 0.441406,-0.320313 0.515625,-0.5 0.07031,-0.1875 0.109375,-0.378906 0.109375,-0.578125 0,-0.195312 -0.03906,-0.390625 -0.109375,-0.578125 -0.07422,-0.195313 -0.246094,-0.367187 -0.515625,-0.515625 -0.273437,-0.15625 -0.6875,-0.273438 -1.25,-0.359375 C 13.015625,-10.953125 12.242188,-11 11.265625,-11 h -3.5 z m 0,0"
               id="path70" />
          </g>
        </g>
        <g
           style="fill:#000000;fill-opacity:1"
           id="g74">
          <g
             transform="translate(45.666861,17.438851)"
             id="g73">
            <path
               style="stroke:none"
               d="M 10.28125,0.3125 C 6.707031,0.3125 4.195312,-0.425781 2.75,-1.90625 1.53125,-3.144531 0.921875,-4.941406 0.921875,-7.296875 v -7.3125 h 6.125 v 7.3125 c 0,1.023437 0.171875,1.828125 0.515625,2.421875 0.5,0.84375 1.40625,1.265625 2.71875,1.265625 1.320312,0 2.226562,-0.421875 2.71875,-1.265625 0.34375,-0.613281 0.515625,-1.421875 0.515625,-2.421875 v -7.3125 h 6.125 v 7.390625 c 0,2.304688 -0.605469,4.074219 -1.8125,5.3125 -1.460937,1.480469 -3.976563,2.21875 -7.546875,2.21875 z m 0,0"
               id="path72" />
          </g>
        </g>
        <g
           style="fill:#000000;fill-opacity:1"
           id="g76">
          <g
             transform="translate(66.233323,17.438851)"
             id="g75">
            <path
               style="stroke:none"
               d="m 23.3125,0 h -7.296875 l -8.25,-9.890625 V 0 H 1.625 V -14.609375 H 8.921875 L 17.1875,-4.78125 v -9.828125 h 6.125 z m 0,0"
               id="path74" />
          </g>
        </g>
        <g
           style="fill:#000000;fill-opacity:1"
           id="g78">
          <g
             transform="translate(91.179964,17.438851)"
             id="g77">
            <path
               style="stroke:none"
               d="M 12.46875,0 H 6.328125 v -11 h -5.71875 v -3.609375 H 18.1875 V -11 h -5.71875 z m 0,0"
               id="path76" />
          </g>
        </g>
      </g>
    </g>
    <g
       transform="translate(148,163)"
       id="g86">
      <g
         clip-path="url(#1d0ad2033b)"
         id="g85">
        <g
           style="fill:#000000;fill-opacity:1"
           id="g82">
          <g
             transform="translate(1.038999,17.745778)"
             id="g81">
            <path
               style="stroke:none"
               d="M 12.46875,0 H 6.328125 v -11 h -5.71875 v -3.609375 H 18.1875 V -11 h -5.71875 z m 0,0"
               id="path80" />
          </g>
        </g>
        <g
           style="fill:#000000;fill-opacity:1"
           id="g84">
          <g
             transform="translate(19.028222,17.745778)"
             id="g83">
            <path
               style="stroke:none"
               d="m 11.046875,0.3125 c -3.617187,0 -6.273437,-0.742188 -7.96875,-2.234375 -1.511719,-1.3125 -2.265625,-3.101563 -2.265625,-5.375 0,-2.269531 0.753906,-4.066406 2.265625,-5.390625 1.695313,-1.476562 4.351563,-2.21875 7.96875,-2.21875 3.613281,0 6.273437,0.742188 7.984375,2.21875 1.5,1.324219 2.25,3.121094 2.25,5.390625 0,2.273437 -0.75,4.0625 -2.25,5.375 C 17.320312,-0.429688 14.660156,0.3125 11.046875,0.3125 Z m 0,-3.921875 c 1.476563,0 2.566406,-0.421875 3.265625,-1.265625 0.550781,-0.6875 0.828125,-1.492188 0.828125,-2.421875 0,-0.9375 -0.277344,-1.742187 -0.828125,-2.421875 C 13.613281,-10.570312 12.523438,-11 11.046875,-11 c -1.480469,0 -2.570313,0.429688 -3.265625,1.28125 -0.554688,0.679688 -0.828125,1.484375 -0.828125,2.421875 0,0.929687 0.273437,1.734375 0.828125,2.421875 0.695312,0.84375 1.785156,1.265625 3.265625,1.265625 z m 0,0"
               id="path82" />
          </g>
        </g>
      </g>
    </g>
    <g
       transform="translate(148,198)"
       id="g106">
      <g
         clip-path="url(#fbc6188efe)"
         id="g105">
        <g
           style="fill:#000000;fill-opacity:1"
           id="g88">
          <g
             transform="translate(1.5974,18.010087)"
             id="g87">
            <path
               style="stroke:none"
               d="M 7.765625,0 H 1.625 V -14.609375 H 18.421875 V -11 H 7.765625 v 2.296875 h 9.015625 v 2.8125 H 7.765625 Z m 0,0"
               id="path86" />
          </g>
        </g>
        <g
           style="fill:#000000;fill-opacity:1"
           id="g90">
          <g
             transform="translate(20.839623,18.010087)"
             id="g89">
            <path
               style="stroke:none"
               d="M 10.28125,0.3125 C 6.707031,0.3125 4.195312,-0.425781 2.75,-1.90625 1.53125,-3.144531 0.921875,-4.941406 0.921875,-7.296875 v -7.3125 h 6.125 v 7.3125 c 0,1.023437 0.171875,1.828125 0.515625,2.421875 0.5,0.84375 1.40625,1.265625 2.71875,1.265625 1.320312,0 2.226562,-0.421875 2.71875,-1.265625 0.34375,-0.613281 0.515625,-1.421875 0.515625,-2.421875 v -7.3125 h 6.125 v 7.390625 c 0,2.304688 -0.605469,4.074219 -1.8125,5.3125 -1.460937,1.480469 -3.976563,2.21875 -7.546875,2.21875 z m 0,0"
               id="path88" />
          </g>
        </g>
        <g
           style="fill:#000000;fill-opacity:1"
           id="g92">
          <g
             transform="translate(41.406085,18.010087)"
             id="g91">
            <path
               style="stroke:none"
               d="m 23.3125,0 h -7.296875 l -8.25,-9.890625 V 0 H 1.625 V -14.609375 H 8.921875 L 17.1875,-4.78125 v -9.828125 h 6.125 z m 0,0"
               id="path90" />
          </g>
        </g>
        <g
           style="fill:#000000;fill-opacity:1"
           id="g94">
          <g
             transform="translate(66.352725,18.010087)"
             id="g93">
            <path
               style="stroke:none"
               d="M 11.40625,0 H 1.625 v -14.609375 h 9.78125 c 4,0 6.875,0.558594 8.625,1.671875 1.414062,0.90625 2.222656,2.136719 2.421875,3.6875 0.08203,0.679688 0.125,1.328125 0.125,1.953125 0,0.617187 -0.04297,1.261719 -0.125,1.9375 -0.08594,0.679687 -0.3125,1.335937 -0.6875,1.96875 -0.367187,0.636719 -0.949219,1.210937 -1.75,1.71875 -0.792969,0.5 -1.882813,0.90625 -3.265625,1.21875 C 15.363281,-0.148438 13.582031,0 11.40625,0 Z m -0.578125,-3.609375 c 3.113281,0 4.875,-0.789063 5.28125,-2.375 0.113281,-0.4375 0.171875,-0.875 0.171875,-1.3125 0,-0.445313 -0.05859,-0.890625 -0.171875,-1.328125 -0.117187,-0.4375 -0.355469,-0.832031 -0.71875,-1.1875 C 15.023438,-10.175781 14.476562,-10.460938 13.75,-10.671875 13.03125,-10.890625 12.054688,-11 10.828125,-11 h -3.0625 v 7.390625 z m 0,0"
               id="path92" />
          </g>
        </g>
        <g
           style="fill:#000000;fill-opacity:1"
           id="g96">
          <g
             transform="translate(88.121049,18.010087)"
             id="g95">
            <path
               style="stroke:none"
               d="m 24.546875,0 h -6.21875 l -1.375,-2.390625 H 7.734375 L 6.359375,0 H 0.15625 L 9.5,-14.609375 h 5.703125 z M 14.890625,-6.015625 12.359375,-10.4375 9.8125,-6.015625 Z m 0,0"
               id="path94" />
          </g>
        </g>
        <g
           style="fill:#000000;fill-opacity:1"
           id="g98">
          <g
             transform="translate(112.82321,18.010087)"
             id="g97">
            <path
               style="stroke:none"
               d="M 29.421875,0 H 23.28125 V -9.3125 L 17.796875,0 h -4.5625 L 7.765625,-9.3125 V 0 H 1.625 v -14.609375 h 7.28125 l 6.609375,10.4375 6.609375,-10.4375 h 7.296875 z m 0,0"
               id="path96" />
          </g>
        </g>
        <g
           style="fill:#000000;fill-opacity:1"
           id="g100">
          <g
             transform="translate(143.87154,18.010087)"
             id="g99">
            <path
               style="stroke:none"
               d="M 19.234375,0 H 1.625 V -14.609375 H 18.421875 V -11 H 7.765625 v 2.296875 h 9.015625 v 2.8125 H 7.765625 v 2.28125 h 11.46875 z m 0,0"
               id="path98" />
          </g>
        </g>
        <g
           style="fill:#000000;fill-opacity:1"
           id="g102">
          <g
             transform="translate(163.9185,18.010087)"
             id="g101">
            <path
               style="stroke:none"
               d="m 23.3125,0 h -7.296875 l -8.25,-9.890625 V 0 H 1.625 V -14.609375 H 8.921875 L 17.1875,-4.78125 v -9.828125 h 6.125 z m 0,0"
               id="path100" />
          </g>
        </g>
        <g
           style="fill:#000000;fill-opacity:1"
           id="g104">
          <g
             transform="translate(188.86515,18.010087)"
             id="g103">
            <path
               style="stroke:none"
               d="M 12.46875,0 H 6.328125 v -11 h -5.71875 v -3.609375 H 18.1875 V -11 h -5.71875 z m 0,0"
               id="path102" />
          </g>
        </g>
      </g>
    </g>
  </g>
</svg>
